<svg version="1.1" xmlns="http://www.w3.org/2000/svg" viewBox="0 0 556.2120439389413 248.7332744226329" width="556.2120439389413" height="248.7332744226329">
  <!-- svg-source:excalidraw -->
  
  <defs>
    <style>
      @font-face {
        font-family: "Virgil";
        src: url("https://excalidraw.com/Virgil.woff2");
      }
      @font-face {
        font-family: "Cascadia";
        src: url("https://excalidraw.com/Cascadia.woff2");
      }
    </style>
  </defs>
  <rect x="0" y="0" width="556.2120439389413" height="248.7332744226329" fill="#ffffff"></rect><g transform="translate(12.098208810017638 12.52396496999404) rotate(0 80.5 12.5)"><text x="0" y="18" font-family="Virgil, Segoe UI Emoji" font-size="20px" fill="#000000" text-anchor="start" style="white-space: pre;" direction="ltr">Foo.vue (parent)</text></g><g transform="translate(10 70.73327442263289) rotate(0 123.5 84)"><text x="0" y="20" font-family="Cascadia, Segoe UI Emoji" font-size="20.06579587645155px" fill="#000000" text-anchor="start" style="white-space: pre;" direction="ltr">const sayHi = () =&gt; {</text><text x="0" y="44" font-family="Cascadia, Segoe UI Emoji" font-size="20.06579587645155px" fill="#000000" text-anchor="start" style="white-space: pre;" direction="ltr">   // do whatever</text><text x="0" y="68" font-family="Cascadia, Segoe UI Emoji" font-size="20.06579587645155px" fill="#000000" text-anchor="start" style="white-space: pre;" direction="ltr">}</text><text x="0" y="92" font-family="Cascadia, Segoe UI Emoji" font-size="20.06579587645155px" fill="#000000" text-anchor="start" style="white-space: pre;" direction="ltr"></text><text x="0" y="116" font-family="Cascadia, Segoe UI Emoji" font-size="20.06579587645155px" fill="#000000" text-anchor="start" style="white-space: pre;" direction="ltr"></text><text x="0" y="140" font-family="Cascadia, Segoe UI Emoji" font-size="20.06579587645155px" fill="#000000" text-anchor="start" style="white-space: pre;" direction="ltr"></text><text x="0" y="164" font-family="Cascadia, Segoe UI Emoji" font-size="20.06579587645155px" fill="#000000" text-anchor="start" style="white-space: pre;" direction="ltr">&lt;Bar @hello='sayHi'&gt;</text></g><g transform="translate(381.2120439389413 105.8018704603077) rotate(0 82.5 12)"><text x="0" y="20" font-family="Cascadia, Segoe UI Emoji" font-size="20px" fill="#000000" text-anchor="start" style="white-space: pre;" direction="ltr">$emit('hello')</text></g><g transform="translate(11.251742706150026 168.45164440426007) rotate(0 23.5 12.5)"><text x="0" y="18" font-family="Virgil, Segoe UI Emoji" font-size="20px" fill="#5c940d" text-anchor="start" style="white-space: pre;" direction="ltr">// ...</text></g><g transform="translate(378.327765481426 10) rotate(0 71 12.5)"><text x="0" y="18" font-family="Virgil, Segoe UI Emoji" font-size="20px" fill="#000000" text-anchor="start" style="white-space: pre;" direction="ltr">Bar.vue (child)</text></g><g stroke-linecap="round"><g transform="translate(484.91140868088087 139.5973562978967) rotate(0 -175.34970853747313 35.06803626224104)"><path d="M0.55 0.15 C-48.86 6.82, -237.14 29.49, -295.59 41.16 C-354.05 52.83, -341.14 65.37, -350.19 70.17 M-0.62 -0.82 C-49.7 6.5, -234.75 30.38, -293.19 42.34 C-351.63 54.3, -341.81 66.26, -351.25 70.95" stroke="#5c940d" stroke-width="1" fill="none"></path></g><g transform="translate(484.91140868088087 139.5973562978967) rotate(0 -175.34970853747313 35.06803626224104)"><path d="M-339.09 42.44 C-344.65 52.78, -349.64 63.45, -353.24 69.3 M-338.62 44 C-342.67 49.66, -344.37 57.86, -350.61 70.03" stroke="#5c940d" stroke-width="1" fill="none"></path></g><g transform="translate(484.91140868088087 139.5973562978967) rotate(0 -175.34970853747313 35.06803626224104)"><path d="M-324.18 56.53 C-335.41 61.7, -345.94 67.14, -353.24 69.3 M-323.7 58.1 C-331.43 60.27, -336.83 64.97, -350.61 70.03" stroke="#5c940d" stroke-width="1" fill="none"></path></g></g></svg>