<svg xmlns="http://www.w3.org/2000/svg" width="556.212" height="248.733"><text y="18" font-family="Virgil, Segoe UI Emoji" font-size="20" class="fill-white dark:fill-black" style="white-space:pre" transform="translate(12.098 12.524)">Foo.vue (parent)</text><g font-family="Cascadia, Segoe UI Emoji" font-size="20.066"><text y="20" class="fill-white dark:fill-black" style="white-space:pre" transform="translate(10 70.733)">const sayHi = () =&gt; {</text><text y="44" class="fill-white dark:fill-black" style="white-space:pre" transform="translate(10 70.733)">   // do whatever</text><text y="68" class="fill-white dark:fill-black" style="white-space:pre" transform="translate(10 70.733)">}</text><text y="164" class="fill-white dark:fill-black" style="white-space:pre" transform="translate(10 70.733)">&lt;Bar @hello=&apos;sayHi&apos;&gt;</text></g><text y="20" font-family="Cascadia, Segoe UI Emoji" font-size="20" class="fill-white dark:fill-black" style="white-space:pre" transform="translate(381.212 105.802)">$emit(&apos;hello&apos;)</text><text y="18" font-family="Virgil, Segoe UI Emoji" font-size="20" fill="#5c940d" style="white-space:pre" transform="translate(11.252 168.452)">// ...</text><text y="18" font-family="Virgil, Segoe UI Emoji" font-size="20" class="fill-white dark:fill-black" style="white-space:pre" transform="translate(378.328 10)">Bar.vue (child)</text><g stroke-linecap="round"><path d="M485.461 139.747c-49.41 6.67-237.69 29.34-296.14 41.01-58.46 11.67-45.55 24.21-54.6 29.01m349.57-70.99c-49.08 7.32-234.13 31.2-292.57 43.16-58.44 11.96-48.62 23.92-58.06 28.61" stroke="#5c940d" fill="none"/><path d="M145.821 182.037c-5.56 10.34-10.55 21.01-14.15 26.86m14.62-25.3c-4.05 5.66-5.75 13.86-11.99 26.03" stroke="#5c940d" fill="none"/><path d="M160.731 196.127c-11.23 5.17-21.76 10.61-29.06 12.77m29.54-11.2c-7.73 2.17-13.13 6.87-26.91 11.93" stroke="#5c940d" fill="none"/></g></svg>